<?xml version="1.0" encoding="utf-8"?>
<!-- Svg Vector Icons : http://www.onlinewebfonts.com/icon -->
<!DOCTYPE svg PUBLIC "-//W3C//DTD SVG 1.1//EN" "http://www.w3.org/Graphics/SVG/1.1/DTD/svg11.dtd">
<svg version="1.1" xmlns="http://www.w3.org/2000/svg" xmlns:xlink="http://www.w3.org/1999/xlink" x="0px" y="0px" viewBox="0 0 256 256" enable-background="new 0 0 256 256" xml:space="preserve">
<metadata> Svg Vector Icons : http://www.onlinewebfonts.com/icon </metadata>
<g><g><path fill="#000000" d="M128,10C62.8,10,10,62.8,10,128c0,65.2,52.8,118,118,118c28.2,0,54-9.9,74.3-26.3l13.1-12.5c19-21,30.6-48.6,30.6-79.1C246,62.8,193.2,10,128,10z M186.9,190.5C186.9,190.5,186.8,190.5,186.9,190.5L186.9,190.5H69.2l0,0c0,0,0,0,0,0c-4.1,0-7.4-3.3-7.4-7.4c0-30.7,20.4-56.5,48.1-64.5c-11.1-6.4-18.7-18.5-18.7-32.4C91.2,65.7,107.7,49,128,49c20.3,0,36.8,16.7,36.8,37.3c0,13.9-7.5,26-18.7,32.4c27.8,8,48.1,33.8,48.1,64.5C194.2,187.2,190.9,190.5,186.9,190.5z"/></g></g>
</svg>